<svg xmlns="http://www.w3.org/2000/svg" viewBox="0 0 200 200" fill="none">
  <!-- Ballot Box -->
  <rect x="40" y="80" width="120" height="100" rx="5" fill="#64748b" stroke="#334155" stroke-width="2"/>
  
  <!-- Slot on top -->
  <rect x="80" y="80" width="40" height="5" rx="2" fill="#334155"/>
  
  <!-- Ballots -->
  <rect x="75" y="40" width="30" height="40" rx="2" fill="white" stroke="#334155" stroke-width="1"/>
  <rect x="80" y="50" width="20" height="2" rx="1" fill="#334155"/>
  <rect x="80" y="55" width="20" height="2" rx="1" fill="#334155"/>
  <rect x="80" y="60" width="20" height="2" rx="1" fill="#334155"/>
  
  <rect x="85" y="30" width="30" height="40" rx="2" fill="white" stroke="#334155" stroke-width="1"/>
  <rect x="90" y="40" width="20" height="2" rx="1" fill="#334155"/>
  <rect x="90" y="45" width="20" height="2" rx="1" fill="#334155"/>
  <rect x="90" y="50" width="20" height="2" rx="1" fill="#334155"/>
  
  <rect x="95" y="20" width="30" height="40" rx="2" fill="white" stroke="#334155" stroke-width="1"/>
  <rect x="100" y="30" width="20" height="2" rx="1" fill="#334155"/>
  <rect x="100" y="35" width="20" height="2" rx="1" fill="#334155"/>
  <rect x="100" y="40" width="20" height="2" rx="1" fill="#334155"/>
</svg>